<svg width="160" height="48" viewBox="0 0 160 48" fill="none" xmlns="http://www.w3.org/2000/svg">
<path fill-rule="evenodd" clip-rule="evenodd" d="M48 24C48 37.2548 37.2548 48 24 48C10.7452 48 0 37.2548 0 24C0 10.7452 10.7452 0 24 0C37.2548 0 48 10.7452 48 24ZM36 24C36 30.6274 30.6274 36 24 36C17.3726 36 12 30.6274 12 24C12 17.3726 17.3726 12 24 12C30.6274 12 36 17.3726 36 24ZM24 32C28.4183 32 32 28.4183 32 24C32 19.5817 28.4183 16 24 16C19.5817 16 16 19.5817 16 24C16 28.4183 19.5817 32 24 32Z" fill="white"/>
<path d="M68.208 36.32C66.0213 36.32 64.128 35.8453 62.528 34.896C60.9387 33.936 59.7067 32.576 58.832 30.816C57.968 29.0453 57.536 26.9333 57.536 24.48C57.536 22.016 57.9733 19.8933 58.848 18.112C59.7333 16.3307 60.976 14.96 62.576 14C64.176 13.0293 66.0533 12.544 68.208 12.544C70.352 12.544 72.2187 13.024 73.808 13.984C75.3973 14.944 76.624 16.3147 77.488 18.096C78.3627 19.8773 78.8 22.0053 78.8 24.48C78.8 26.9227 78.368 29.0293 77.504 30.8C76.6507 32.5707 75.4293 33.936 73.84 34.896C72.2507 35.8453 70.3733 36.32 68.208 36.32ZM68.208 32.48C69.3387 32.48 70.3147 32.2133 71.136 31.68C71.968 31.136 72.608 30.2827 73.056 29.12C73.504 27.9467 73.728 26.4213 73.728 24.544C73.728 22.6133 73.4987 21.0507 73.04 19.856C72.592 18.6613 71.952 17.7867 71.12 17.232C70.2987 16.6667 69.328 16.384 68.208 16.384C67.088 16.384 66.112 16.6667 65.28 17.232C64.448 17.7867 63.8027 18.6667 63.344 19.872C62.8853 21.0667 62.656 22.624 62.656 24.544C62.656 26.432 62.8853 27.9573 63.344 29.12C63.8027 30.2827 64.448 31.136 65.28 31.68C66.112 32.2133 67.088 32.48 68.208 32.48ZM82.2958 36V12.864H92.0558C93.9011 12.864 95.4104 13.1573 96.5838 13.744C97.7571 14.3307 98.6211 15.1467 99.1758 16.192C99.7304 17.2267 100.008 18.4213 100.008 19.776C100.008 20.992 99.8158 22.0213 99.4318 22.864C99.0584 23.696 98.5624 24.3893 97.9438 24.944C97.3358 25.4987 96.6691 25.952 95.9438 26.304L100.248 36H95.3998L91.6398 27.088H86.9518V36H82.2958ZM86.9518 23.488H91.2238C92.4718 23.488 93.4584 23.152 94.1838 22.48C94.9198 21.808 95.2878 20.944 95.2878 19.888C95.2878 18.8213 94.9358 17.9787 94.2318 17.36C93.5278 16.7413 92.6371 16.432 91.5598 16.432H86.9518V23.488ZM103.937 36V12.864H108.593V36H103.937ZM122.757 36.32C120.57 36.32 118.677 35.8453 117.077 34.896C115.487 33.936 114.255 32.576 113.381 30.816C112.517 29.0453 112.085 26.9333 112.085 24.48C112.085 22.016 112.522 19.8933 113.397 18.112C114.282 16.3307 115.525 14.96 117.125 14C118.725 13.0293 120.602 12.544 122.757 12.544C124.901 12.544 126.767 13.024 128.357 13.984C129.946 14.944 131.173 16.3147 132.037 18.096C132.911 19.8773 133.349 22.0053 133.349 24.48C133.349 26.9227 132.917 29.0293 132.053 30.8C131.199 32.5707 129.978 33.936 128.389 34.896C126.799 35.8453 124.922 36.32 122.757 36.32ZM122.757 32.48C123.887 32.48 124.863 32.2133 125.685 31.68C126.517 31.136 127.157 30.2827 127.605 29.12C128.053 27.9467 128.277 26.4213 128.277 24.544C128.277 22.6133 128.047 21.0507 127.589 19.856C127.141 18.6613 126.501 17.7867 125.669 17.232C124.847 16.6667 123.877 16.384 122.757 16.384C121.637 16.384 120.661 16.6667 119.829 17.232C118.997 17.7867 118.351 18.6667 117.893 19.872C117.434 21.0667 117.205 22.624 117.205 24.544C117.205 26.432 117.434 27.9573 117.893 29.12C118.351 30.2827 118.997 31.136 119.829 31.68C120.661 32.2133 121.637 32.48 122.757 32.48ZM136.845 36V12.864H141.469L152.029 28.176V12.864H156.701V36H152.493L141.501 20.08V36H136.845Z" fill="white"/>
</svg>
